<svg width="22" height="24" viewBox="0 0 22 24" fill="none" xmlns="http://www.w3.org/2000/svg">
<path d="M3.65594 16.5524C1.72348 16.5524 0.157227 18.0632 0.157227 19.9274C0.157227 21.7915 1.72348 23.3024 3.65594 23.3024C5.5884 23.3024 7.15465 21.7915 7.15465 19.9274C7.15465 18.0632 5.5884 16.5524 3.65594 16.5524ZM3.65594 21.0524C3.01334 21.0524 2.4897 20.5472 2.4897 19.9274C2.4897 19.3075 3.01334 18.8024 3.65594 18.8024C4.29854 18.8024 4.82218 19.3075 4.82218 19.9274C4.82218 20.5472 4.29854 21.0524 3.65594 21.0524Z" fill="#545454"/>
<path d="M3.65594 15.4274C5.58823 15.4274 7.15465 13.9163 7.15465 12.0524C7.15465 10.1884 5.58823 8.67737 3.65594 8.67737C1.72365 8.67737 0.157227 10.1884 0.157227 12.0524C0.157227 13.9163 1.72365 15.4274 3.65594 15.4274Z" fill="#545454"/>
<path d="M3.65594 0.802368C1.72348 0.802368 0.157227 2.31324 0.157227 4.17737C0.157227 6.04149 1.72348 7.55237 3.65594 7.55237C5.5884 7.55237 7.15465 6.04149 7.15465 4.17737C7.15465 2.31324 5.5884 0.802368 3.65594 0.802368ZM3.65594 5.30237C3.01334 5.30237 2.4897 4.79724 2.4897 4.17737C2.4897 3.55749 3.01334 3.05237 3.65594 3.05237C4.29854 3.05237 4.82218 3.55749 4.82218 4.17737C4.82218 4.79724 4.29854 5.30237 3.65594 5.30237Z" fill="#545454"/>
<path d="M21.1494 3.05237H9.48706V5.30237H21.1494V3.05237Z" fill="#545454"/>
<path d="M21.1494 10.9274H9.48706V13.1774H21.1494V10.9274Z" fill="#545454"/>
<path d="M21.1494 18.8024H9.48706V21.0524H21.1494V18.8024Z" fill="#545454"/>
<path d="M3.65594 16.5524C1.72348 16.5524 0.157227 18.0632 0.157227 19.9274C0.157227 21.7915 1.72348 23.3024 3.65594 23.3024C5.5884 23.3024 7.15465 21.7915 7.15465 19.9274C7.15465 18.0632 5.5884 16.5524 3.65594 16.5524ZM3.65594 21.0524C3.01334 21.0524 2.4897 20.5472 2.4897 19.9274C2.4897 19.3075 3.01334 18.8024 3.65594 18.8024C4.29854 18.8024 4.82218 19.3075 4.82218 19.9274C4.82218 20.5472 4.29854 21.0524 3.65594 21.0524Z" fill="#545454"/>
<path d="M3.65594 15.4274C5.58823 15.4274 7.15465 13.9163 7.15465 12.0524C7.15465 10.1884 5.58823 8.67737 3.65594 8.67737C1.72365 8.67737 0.157227 10.1884 0.157227 12.0524C0.157227 13.9163 1.72365 15.4274 3.65594 15.4274Z" fill="#545454"/>
<path d="M3.65594 0.802368C1.72348 0.802368 0.157227 2.31324 0.157227 4.17737C0.157227 6.04149 1.72348 7.55237 3.65594 7.55237C5.5884 7.55237 7.15465 6.04149 7.15465 4.17737C7.15465 2.31324 5.5884 0.802368 3.65594 0.802368ZM3.65594 5.30237C3.01334 5.30237 2.4897 4.79724 2.4897 4.17737C2.4897 3.55749 3.01334 3.05237 3.65594 3.05237C4.29854 3.05237 4.82218 3.55749 4.82218 4.17737C4.82218 4.79724 4.29854 5.30237 3.65594 5.30237Z" fill="#545454"/>
<path d="M21.1494 3.05237H9.48706V5.30237H21.1494V3.05237Z" fill="#545454"/>
<path d="M21.1494 10.9274H9.48706V13.1774H21.1494V10.9274Z" fill="#545454"/>
<path d="M21.1494 18.8024H9.48706V21.0524H21.1494V18.8024Z" fill="#545454"/>
</svg>
