<svg width="25" height="25" viewBox="0 0 25 25" fill="none" xmlns="http://www.w3.org/2000/svg">
<path fill-rule="evenodd" clip-rule="evenodd" d="M11.6897 0.10636C11.9597 -0.0151943 12.2624 -0.0325593 12.5417 0.0542655L12.6792 0.10636L23.6451 5.04367C24.0861 5.24224 24.3657 5.6831 24.3688 6.16332L24.3614 6.30836L23.6639 12.6691C23.3074 15.9204 21.5565 18.8406 18.8888 20.6602L18.577 20.8652L12.8302 24.5049C12.479 24.7273 12.0439 24.752 11.674 24.579L11.5387 24.5049L5.79187 20.8652C3.05435 19.1314 1.21528 16.2674 0.752228 13.0427L0.704933 12.6691L0.00749306 6.30836C-0.0458024 5.8223 0.188808 5.35531 0.596399 5.1103L0.723751 5.04367L11.6897 0.10636ZM12.1844 2.58579L2.52792 6.93354L3.1269 12.3964C3.40232 14.9083 4.74781 17.1661 6.79932 18.5832L7.08341 18.7711L12.1844 22.0018L17.2854 18.7711C19.4004 17.4317 20.8258 15.2249 21.1978 12.7373L21.2419 12.3964L21.8409 6.93354L12.1844 2.58579ZM14.8816 7.87864C15.2974 7.34245 16.0633 7.2493 16.5925 7.6706C17.0809 8.05949 17.1968 8.75078 16.8847 9.27656L16.7978 9.40429L11.924 15.5777C11.505 16.1182 10.7406 16.2013 10.2199 15.7914L10.1044 15.688L7.66754 13.2186C7.19171 12.7364 7.19171 11.9547 7.66754 11.4725C8.10677 11.0274 8.7979 10.9932 9.27588 11.3698L9.39067 11.4725L10.8564 12.9578L14.8816 7.87864Z" fill="#545454"/>
</svg>
