<svg width="29" height="29" viewBox="0 0 29 29" fill="none" xmlns="http://www.w3.org/2000/svg">
<path d="M17.553 18.0736L18.5856 20.2961C18.5856 20.2961 23.2319 21.2829 23.2319 23.63C23.2319 25.297 21.1669 25.297 21.1669 25.297H15.6601L12.9497 23.7912" stroke="#545454" stroke-width="1.80692" stroke-linecap="round" stroke-linejoin="round"/>
<path d="M11.3578 18.0736L10.3253 20.2961C10.3253 20.2961 5.67896 21.2829 5.67896 23.63C5.67896 25.297 7.744 25.297 7.744 25.297H10.2393L12.9497 23.7912L16.2624 21.6831" stroke="#545454" stroke-width="1.80692" stroke-linecap="round" stroke-linejoin="round"/>
<path d="M3.61377 19.1848C3.61377 19.1848 6.19509 18.6293 7.74387 18.0736C9.29267 10.2946 13.939 10.8502 14.4553 10.8502C14.9716 10.8502 19.6179 10.2946 21.1667 18.0736C22.7155 18.6293 25.2968 19.1848 25.2968 19.1848" stroke="#545454" stroke-width="1.80692" stroke-linecap="round" stroke-linejoin="round"/>
<path d="M14.4554 8.43247C15.786 8.43247 16.8646 7.35382 16.8646 6.02324C16.8646 4.69266 15.786 3.61401 14.4554 3.61401C13.1248 3.61401 12.0461 4.69266 12.0461 6.02324C12.0461 7.35382 13.1248 8.43247 14.4554 8.43247Z" stroke="#545454" stroke-width="1.80692" stroke-linecap="round" stroke-linejoin="round"/>
</svg>
