<svg width="24" height="24" viewBox="0 0 24 24" fill="none" xmlns="http://www.w3.org/2000/svg">
<g clip-path="url(#clip0_53_1053)">
<path d="M21.3964 17.0703V6.92967C25.3453 5.85731 24.5655 0 20.4733 0C18.8481 0 17.477 1.10531 17.0701 2.60344H6.92944C6.52261 1.10531 5.15142 0 3.52632 0C-0.565684 0 -1.34587 5.85722 2.60325 6.92967V17.0704C-1.34568 18.1427 -0.565872 24 3.52632 24C5.15147 24 6.52261 22.8947 6.92944 21.3966H17.0702C17.477 22.8947 18.8482 24 20.4733 24C24.5653 24 25.3455 18.1428 21.3964 17.0703ZM20.4733 1.84617C21.3998 1.84617 22.1536 2.59997 22.1536 3.52655C22.1536 4.45312 21.3998 5.20692 20.4733 5.20692C19.5467 5.20692 18.7929 4.45308 18.7929 3.52655C18.7929 2.59992 19.5467 1.84617 20.4733 1.84617ZM1.84594 3.5265C1.84594 2.59992 2.59974 1.84612 3.52632 1.84612C4.45289 1.84612 5.20669 2.59992 5.20669 3.5265C5.20669 4.45308 4.45289 5.20687 3.52632 5.20687C2.59974 5.20687 1.84594 4.45303 1.84594 3.5265ZM3.52632 22.1538C2.59974 22.1538 1.84594 21.4 1.84594 20.4735C1.84594 19.5469 2.59974 18.7931 3.52632 18.7931C4.45289 18.7931 5.20669 19.5469 5.20669 20.4735C5.20669 21.4001 4.45285 22.1538 3.52632 22.1538ZM17.0701 19.5504H6.92944C6.60253 18.3467 5.65308 17.3972 4.44938 17.0703V6.92967C5.65308 6.60277 6.60253 5.65331 6.92944 4.44961H17.0702C17.3971 5.65331 18.3465 6.60277 19.5503 6.92967V17.0704C18.3465 17.3972 17.397 18.3467 17.0701 19.5504ZM20.4733 22.1538C19.5467 22.1538 18.7929 21.4 18.7929 20.4735C18.7929 19.5469 19.5467 18.7931 20.4733 18.7931C21.3998 18.7931 22.1536 19.5469 22.1536 20.4735C22.1536 21.4 21.3998 22.1538 20.4733 22.1538Z" fill="#545454"/>
</g>
<defs>
<clipPath id="clip0_53_1053">
<rect width="24" height="24" fill="white"/>
</clipPath>
</defs>
</svg>
