<svg width="32" height="32" viewBox="0 0 32 32" fill="none" xmlns="http://www.w3.org/2000/svg">
<path d="M15.9996 17.2552C15.9236 17.2552 15.8484 17.2384 15.774 17.2056L4.34683 12.092C4.13163 11.996 3.99483 11.776 3.99963 11.5304C4.00443 11.288 4.15243 11.068 4.36763 10.984L15.7964 6.43922C15.862 6.41362 15.93 6.40002 15.9996 6.40002C16.0684 6.40002 16.1372 6.41362 16.2028 6.43922L27.6308 10.9824C27.8508 11.0704 27.9948 11.2848 27.9996 11.5288C28.006 11.7752 27.8692 11.996 27.6524 12.092L16.2244 17.208C16.1532 17.2392 16.0764 17.2552 15.9996 17.2552ZM6.10043 11.5744L15.9716 15.992L25.8988 11.5744L15.9996 7.63922L6.10043 11.5744Z" fill="#676B5F"/>
<path d="M4.34736 16.392C4.05856 16.2616 3.92337 15.9088 4.04657 15.6056C4.13697 15.3856 4.34416 15.2424 4.57376 15.2424C4.65136 15.2424 4.72657 15.2592 4.79937 15.292L15.973 20.2912L27.2026 15.292C27.2762 15.2584 27.3514 15.2424 27.429 15.2424C27.6578 15.2424 27.8642 15.384 27.9538 15.6056C28.0778 15.9088 27.9426 16.2616 27.653 16.392L16.0002 21.6064L4.34736 16.392Z" fill="#676B5F"/>
<path d="M4.34733 20.384C4.05773 20.2528 3.92253 19.9008 4.04653 19.5992C4.13693 19.3792 4.34413 19.236 4.57373 19.236C4.65133 19.236 4.72653 19.2528 4.79933 19.2848L15.9729 24.2848L27.2025 19.2848C27.2745 19.2536 27.3513 19.236 27.4289 19.236C27.6577 19.236 27.8641 19.3792 27.9537 19.5992C28.0777 19.9016 27.9425 20.2544 27.6537 20.384L16.0001 25.6L4.34733 20.384Z" fill="#676B5F"/>
</svg>
