<svg width="85" height="40" viewBox="0 0 85 40" fill="none" xmlns="http://www.w3.org/2000/svg">
<rect width="85" height="40" rx="7.32673" fill="#E9E9E9"/>
<g clip-path="url(#clip0_80_3375)">
<path d="M18.3689 12.3659C18.1737 12.0295 18.2892 11.5978 18.6256 11.4025C18.962 11.2072 19.3937 11.3218 19.589 11.6592L20.4947 13.2267C20.6899 13.5631 20.5744 13.9948 20.238 14.1901C19.9016 14.3853 19.4698 14.2708 19.2746 13.9334L18.3689 12.3659ZM24 14.6906C25.7426 14.6906 27.3193 15.3964 28.4614 16.5386C29.6027 17.6808 30.3094 19.2583 30.3094 21C30.3094 22.7426 29.6036 24.3193 28.4614 25.4614C27.3193 26.6036 25.7426 27.3094 24 27.3094C22.2574 27.3094 20.6808 26.6036 19.5386 25.4614C18.3973 24.3193 17.6906 22.7426 17.6906 21C17.6906 19.2574 18.3964 17.6808 19.5386 16.5386C20.6808 15.3973 22.2583 14.6906 24 14.6906ZM27.5081 17.4919C26.6107 16.5945 25.3704 16.039 24 16.039C22.6296 16.039 21.3893 16.5945 20.4919 17.4919C19.5945 18.3893 19.039 19.6296 19.039 21C19.039 22.3704 19.5945 23.6107 20.4919 24.5081C21.3893 25.4055 22.6296 25.961 24 25.961C25.3704 25.961 26.6107 25.4055 27.5081 24.5081C28.4055 23.6107 28.961 22.3704 28.961 21C28.961 19.6296 28.4055 18.3893 27.5081 17.4919ZM23.439 10.7068C23.439 10.3162 23.7552 10 24.1458 10C24.5363 10 24.8525 10.3162 24.8525 10.7068V12.5172C24.8525 12.9077 24.5363 13.2239 24.1458 13.2239C23.7552 13.2239 23.439 12.9077 23.439 12.5172V10.7068ZM28.6631 11.8077C28.8565 11.4712 29.2864 11.3548 29.6238 11.5482C29.9602 11.7417 30.0766 12.1716 29.8832 12.5089L28.9775 14.0764C28.7841 14.4128 28.3542 14.5293 28.0168 14.3358C27.6804 14.1424 27.564 13.7125 27.7574 13.3752L28.6631 11.8077ZM32.6341 15.3689C32.9705 15.1737 33.4023 15.2892 33.5975 15.6256C33.7927 15.962 33.6782 16.3937 33.3408 16.589L31.7733 17.4947C31.4369 17.6899 31.0052 17.5744 30.8099 17.238C30.6147 16.9016 30.7292 16.4698 31.0666 16.2746L32.6341 15.3689ZM34.2932 20.439C34.6838 20.439 35 20.7552 35 21.1458C35 21.5363 34.6838 21.8525 34.2932 21.8525H32.4828C32.0923 21.8525 31.7761 21.5363 31.7761 21.1458C31.7761 20.7552 32.0923 20.439 32.4828 20.439H34.2932ZM33.1923 25.6631C33.5287 25.8565 33.6452 26.2864 33.4517 26.6238C33.2583 26.9602 32.8284 27.0766 32.4911 26.8832L30.9236 25.9775C30.5872 25.7841 30.4708 25.3542 30.6642 25.0168C30.8576 24.6804 31.2875 24.564 31.6248 24.7574L33.1923 25.6631ZM29.6311 29.6341C29.8263 29.9705 29.7108 30.4023 29.3744 30.5975C29.038 30.7927 28.6062 30.6782 28.411 30.3408L27.5053 28.7733C27.3101 28.4369 27.4256 28.0052 27.762 27.8099C28.0984 27.6147 28.5302 27.7292 28.7254 28.0666L29.6311 29.6341ZM24.561 31.2932C24.561 31.6838 24.2448 32 23.8543 32C23.4638 32 23.1475 31.6838 23.1475 31.2932V29.4828C23.1475 29.0923 23.4638 28.7761 23.8543 28.7761C24.2448 28.7761 24.561 29.0923 24.561 29.4828V31.2932ZM19.3369 30.1923C19.1435 30.5287 18.7136 30.6452 18.3763 30.4517C18.0398 30.2583 17.9234 29.8284 18.1168 29.4911L19.0225 27.9236C19.2159 27.5872 19.6458 27.4708 19.9832 27.6642C20.3196 27.8576 20.436 28.2875 20.2426 28.6248L19.3369 30.1923ZM15.3659 26.6311C15.0295 26.8263 14.5978 26.7108 14.4025 26.3744C14.2072 26.038 14.3218 25.6062 14.6592 25.411L16.2267 24.5053C16.5631 24.3101 16.9948 24.4256 17.1901 24.762C17.3853 25.0984 17.2708 25.5302 16.9334 25.7254L15.3659 26.6311ZM13.7068 21.561C13.3162 21.561 13 21.2448 13 20.8543C13 20.4638 13.3162 20.1475 13.7068 20.1475H15.5172C15.9077 20.1475 16.2239 20.4638 16.2239 20.8543C16.2239 21.2448 15.9077 21.561 15.5172 21.561H13.7068ZM14.8077 16.3369C14.4712 16.1435 14.3548 15.7136 14.5482 15.3763C14.7417 15.0398 15.1716 14.9234 15.5089 15.1168L17.0764 16.0225C17.4128 16.2159 17.5293 16.6458 17.3358 16.9832C17.1424 17.3196 16.7125 17.436 16.3752 17.2426L14.8077 16.3369Z" fill="black"/>
</g>
<defs>
<clipPath id="clip0_80_3375">
<rect width="22" height="22" fill="white" transform="translate(13 10)"/>
</clipPath>
</defs>
</svg>
