<svg width="31" height="32" viewBox="0 0 31 32" fill="none" xmlns="http://www.w3.org/2000/svg">
<rect width="31" height="32" rx="7.32673" fill="#121212"/>
<path d="M9.00158 15.4896C8.96203 17.4362 9.6671 19.3197 10.9623 20.7275C12.2575 22.1352 14.0372 22.9524 15.9115 23C17.1476 22.9857 18.3571 22.6258 19.4129 21.9582C20.4687 21.2906 21.3319 20.34 21.9116 19.2062C21.9737 19.0881 22.0041 18.9548 21.9996 18.8204C21.995 18.6859 21.9557 18.5552 21.8858 18.4419C21.8158 18.3286 21.7179 18.237 21.6021 18.1766C21.4863 18.1162 21.357 18.0892 21.2278 18.0986L21.1483 18.1046C21.0537 18.1121 20.9584 18.1196 20.8595 18.1196C19.3682 18.0721 17.9557 17.413 16.9314 16.2865C15.907 15.16 15.3541 13.6579 15.3938 12.109C15.3936 11.0612 15.6459 10.03 16.1274 9.10933C16.1895 8.99136 16.2198 8.85824 16.2153 8.72391C16.2109 8.58958 16.1717 8.45898 16.1019 8.34576C16.0322 8.23254 15.9344 8.14087 15.8188 8.08034C15.7033 8.01981 15.5742 7.99265 15.445 8.0017C13.6603 8.17748 12.0052 9.04634 10.8106 10.4346C9.61597 11.8228 8.96992 13.6281 9.00158 15.4896ZM14.3041 9.75125C14.0707 10.5137 13.9518 11.3089 13.9517 12.109C13.9232 13.8881 14.5116 15.6186 15.6095 16.9846C16.7074 18.3507 18.2416 19.2613 19.9323 19.5504C19.4357 20.1555 18.8197 20.6428 18.126 20.9792C17.4323 21.3156 16.6771 21.4933 15.9115 21.5002C14.4202 21.4527 13.0078 20.7936 11.9834 19.6671C10.959 18.5406 10.4061 17.0385 10.4458 15.4896C10.4289 14.2339 10.7923 13.0045 11.4846 11.9748C12.1769 10.9452 13.1632 10.1674 14.3041 9.75125Z" fill="white"/>
</svg>
