<svg xmlns="http://www.w3.org/2000/svg" width="191" height="37" fill="none"><path fill="#00B67A" d="M35.807.76H0v35.806h35.807zm38.416 0H38.417v35.806h35.806zm38.792 0H77.208v35.806h35.807zm38.418 0h-35.807v35.806h35.807z"/><path fill="#DCDCE6" d="M190.223.76h-35.807v35.806h35.807z"/><path fill="#00B67A" d="M154.416.76h17.903v35.433h-17.903z"/><path fill="#fff" d="m17.529 24.627 5.594-1.492 2.238 7.086zm12.681-8.952h-9.698L17.53 6.723l-2.984 8.952H5.22l7.833 5.595-2.984 8.951 7.833-5.594 4.848-3.357zm26.11 8.952 5.595-1.492 2.238 7.086zm12.309-8.952H58.93l-2.984-8.952-2.984 8.952h-9.698l7.833 5.595-2.984 8.951 7.833-5.594 4.849-3.357zm26.482 8.952 5.595-1.492 2.238 7.086zm12.309-8.952h-9.698l-2.984-8.952-2.984 8.952h-9.697l7.832 5.595-2.61 8.951 7.832-5.594 4.85-3.357zm26.108 8.952 5.595-1.492 2.238 7.086zm12.681-8.952h-9.697l-2.984-8.952-2.984 8.952h-9.698l7.833 5.595-2.984 8.951 7.833-5.594 4.849-3.357zm26.11 8.952 5.595-1.492 2.238 7.086zm12.309-8.952h-9.698l-2.984-8.952-2.611 8.952h-9.697l7.832 5.595-2.984 8.951 7.833-5.594 4.849-3.357z"/></svg>