<svg xmlns="http://www.w3.org/2000/svg" width="113" height="26" fill="none"><path fill="#fff" d="M0 0h112.35v25.471H0z"/><path fill="#00B67A" d="M26.749 9.733h-10.22L13.385 0 10.22 9.733 0 9.715l8.265 6.022L5.1 25.471l8.265-6.023 8.265 6.023-3.146-9.734z"/><path fill="#000" d="M30.019 7h11.299v2.107h-4.45v11.878H34.43V9.107H30zm10.815 3.86h2.084v1.958h.038c.074-.28.204-.541.39-.802s.41-.504.69-.709c.26-.223.558-.391.893-.522.316-.13.651-.205.986-.205.26 0 .447.019.54.019.093.018.205.037.298.037v2.144a4 4 0 0 0-.484-.074c-.168-.019-.316-.038-.484-.038a2.6 2.6 0 0 0-1.061.224 2.7 2.7 0 0 0-.875.653 3.5 3.5 0 0 0-.596 1.081c-.148.43-.223.933-.223 1.492v4.81h-2.234zM56.99 20.985h-2.197v-1.418h-.037c-.28.523-.689.914-1.228 1.231a3.24 3.24 0 0 1-1.657.466c-1.322 0-2.29-.317-2.885-.988-.596-.653-.894-1.66-.894-2.983V10.86h2.234v6.209c0 .895.167 1.529.521 1.883.335.373.82.56 1.433.56q.699 0 1.173-.224c.317-.15.577-.336.763-.578.205-.243.335-.541.428-.877s.13-.708.13-1.1V10.86h2.235v10.125zm3.797-3.245c.075.653.317 1.1.745 1.38.428.261.95.392 1.545.392.204 0 .447-.02.707-.056.26-.038.521-.094.745-.187a1.3 1.3 0 0 0 .577-.41.96.96 0 0 0 .204-.69c-.018-.28-.111-.522-.316-.709s-.447-.317-.745-.447a6.5 6.5 0 0 0-1.042-.28c-.39-.074-.782-.168-1.191-.26-.41-.094-.82-.206-1.21-.336a3.5 3.5 0 0 1-1.043-.541 2.3 2.3 0 0 1-.726-.858c-.186-.354-.279-.764-.279-1.287 0-.559.13-1.006.41-1.38a3 3 0 0 1 1.024-.894c.409-.224.874-.392 1.377-.485s.986-.13 1.433-.13c.522 0 1.024.055 1.49.167s.912.28 1.284.54c.39.243.707.579.95.97.26.392.409.877.483 1.436h-2.327c-.111-.54-.353-.895-.726-1.081a3 3 0 0 0-1.321-.28c-.15 0-.354.019-.559.037a3.3 3.3 0 0 0-.614.15 1.5 1.5 0 0 0-.484.317.75.75 0 0 0-.205.54c0 .28.093.485.28.653.186.168.428.298.744.429.298.112.652.205 1.043.28.39.074.8.167 1.21.26.409.094.8.206 1.19.336.392.13.745.298 1.043.54.298.225.559.504.745.84s.279.764.279 1.25c0 .596-.13 1.1-.41 1.528-.279.41-.632.765-1.06 1.026-.429.26-.931.447-1.453.578a7.8 7.8 0 0 1-1.582.186 6.7 6.7 0 0 1-1.768-.223 4.5 4.5 0 0 1-1.415-.653 3.1 3.1 0 0 1-.93-1.1c-.224-.43-.354-.951-.373-1.567h2.253v.02zm7.353-6.88h1.694V7.802h2.234v3.04h2.01V12.5h-2.01v5.407c0 .242.018.429.037.615.018.168.074.317.13.43a.73.73 0 0 0 .316.26c.15.056.335.093.596.093.149 0 .317 0 .466-.018.148-.019.316-.038.465-.075v1.734a10 10 0 0 1-.726.075 4.6 4.6 0 0 1-.726.037c-.596 0-1.061-.056-1.415-.168a2 2 0 0 1-.837-.484 1.73 1.73 0 0 1-.41-.802 6.4 6.4 0 0 1-.13-1.12V12.52H68.14v-1.697zm7.501 0h2.104v1.38h.037c.317-.597.745-1.007 1.303-1.268a4.2 4.2 0 0 1 1.824-.392c.8 0 1.49.13 2.085.429.596.28 1.08.652 1.47 1.156.392.485.69 1.063.876 1.715s.297 1.361.297 2.089a7.7 7.7 0 0 1-.26 1.976c-.186.634-.447 1.212-.8 1.697s-.801.876-1.36 1.175c-.558.298-1.19.447-1.935.447-.317 0-.652-.037-.968-.093a4 4 0 0 1-.931-.28 3.3 3.3 0 0 1-.82-.503 2.8 2.8 0 0 1-.632-.709h-.037v5.053H75.66V10.86zm7.8 5.071a4.6 4.6 0 0 0-.186-1.323 3.4 3.4 0 0 0-.54-1.138 3 3 0 0 0-.875-.802c-.354-.205-.763-.298-1.21-.298-.93 0-1.638.317-2.122.97-.465.652-.707 1.529-.707 2.61 0 .522.055.988.186 1.417.13.429.298.802.558 1.119.242.317.54.56.894.746.353.186.744.28 1.21.28.52 0 .93-.112 1.284-.317s.633-.485.875-.802c.223-.336.39-.709.484-1.138.093-.447.149-.876.149-1.324M87.37 7h2.233v2.107H87.37zm0 3.86h2.233v10.125H87.37zM91.595 7h2.234v13.985h-2.234zm9.047 14.264c-.8 0-1.527-.13-2.16-.41a4.9 4.9 0 0 1-1.6-1.1 4.8 4.8 0 0 1-.987-1.697 6.6 6.6 0 0 1-.354-2.144c0-.765.112-1.473.354-2.126a5 5 0 0 1 .986-1.697 4.5 4.5 0 0 1 1.601-1.1 5.6 5.6 0 0 1 2.16-.41c.8 0 1.526.13 2.159.41a4.6 4.6 0 0 1 1.601 1.1c.428.466.763 1.044.986 1.697a6.5 6.5 0 0 1 .354 2.126c0 .783-.112 1.491-.354 2.144s-.558 1.212-.986 1.697a4.5 4.5 0 0 1-1.601 1.1c-.633.261-1.34.41-2.159.41m0-1.771c.484 0 .93-.112 1.284-.317.372-.205.651-.485.893-.82.242-.336.41-.728.522-1.138a5.1 5.1 0 0 0 0-2.592 3.4 3.4 0 0 0-.522-1.137 2.8 2.8 0 0 0-.893-.802 2.6 2.6 0 0 0-1.284-.317c-.484 0-.931.112-1.285.317-.372.205-.651.485-.893.802-.242.335-.41.708-.522 1.137a5.1 5.1 0 0 0 0 2.592c.112.429.28.802.522 1.137.242.336.54.616.893.82.372.225.801.318 1.285.318m5.77-8.633h1.694V7.802h2.234v3.04h2.01V12.5h-2.01v5.407c0 .242.018.429.037.615.018.168.074.317.13.43a.73.73 0 0 0 .317.26c.149.056.335.093.595.093.149 0 .317 0 .466-.018.149-.019.316-.038.465-.075v1.734a10 10 0 0 1-.726.075c-.242.037-.465.037-.726.037-.596 0-1.061-.056-1.415-.168a2 2 0 0 1-.837-.484 1.74 1.74 0 0 1-.41-.802 6.5 6.5 0 0 1-.13-1.12V12.52h-1.694v-1.697z"/></svg>